<svg width="16" height="21" viewBox="0 0 16 21" fill="none" xmlns="http://www.w3.org/2000/svg">
    <path
        d="M9.52865 8.02865C9.789 7.76834 10.211 7.76831 10.4714 8.02865C10.7317 8.28899 10.7317 8.71101 10.4714 8.97136L8.94271 10.5L10.4714 12.0287L10.5169 12.0794C10.7305 12.3413 10.7154 12.7273 10.4714 12.9714C10.2273 13.2154 9.84128 13.2305 9.57943 13.0169L9.52865 12.9714L8 11.4427L6.47135 12.9714C6.21101 13.2317 5.789 13.2317 5.52865 12.9714C5.2683 12.711 5.2683 12.289 5.52865 12.0287L7.05729 10.5L5.52865 8.97136L5.48307 8.92058C5.26951 8.65873 5.28457 8.27273 5.52865 8.02865C5.77272 7.78458 6.15872 7.76952 6.42057 7.98308L6.47135 8.02865L8 9.5573L9.52865 8.02865Z"
        fill="#E51010" />
    <path fill-rule="evenodd" clip-rule="evenodd"
        d="M8 3.16667C12.0501 3.16667 15.3333 6.44992 15.3333 10.5C15.3333 14.5501 12.0501 17.8333 8 17.8333C3.94991 17.8333 0.666668 14.5501 0.666668 10.5C0.666668 6.44992 3.94991 3.16667 8 3.16667ZM8 4.50001C4.68629 4.50001 2 7.1863 2 10.5C2 13.8137 4.68629 16.5 8 16.5C11.3137 16.5 14 13.8137 14 10.5C14 7.1863 11.3137 4.50001 8 4.50001Z"
        fill="#E51010" />
</svg>