<svg width="16" height="17" viewBox="0 0 16 17" fill="none" xmlns="http://www.w3.org/2000/svg">
    <path
        d="M8 7.83333C8.36819 7.83333 8.66667 8.13181 8.66667 8.5V11.1667C8.66667 11.5349 8.36819 11.8333 8 11.8333C7.63181 11.8333 7.33333 11.5349 7.33333 11.1667V8.5C7.33333 8.13181 7.63181 7.83333 8 7.83333Z"
        fill="#0094D5" />
    <path
        d="M8.07487 5.16992C8.41103 5.20407 8.67318 5.48816 8.67318 5.83333C8.67318 6.1785 8.41103 6.4626 8.07487 6.49675L8.00651 6.5H8C7.63181 6.5 7.33333 6.20152 7.33333 5.83333C7.33333 5.46514 7.63181 5.16667 8 5.16667H8.00651L8.07487 5.16992Z"
        fill="#0094D5" />
    <path fill-rule="evenodd" clip-rule="evenodd"
        d="M8 1.16667C12.0501 1.16667 15.3333 4.44991 15.3333 8.5C15.3333 12.5501 12.0501 15.8333 8 15.8333C3.94991 15.8333 0.666668 12.5501 0.666668 8.5C0.666668 4.44991 3.94991 1.16667 8 1.16667ZM8 2.5C4.68629 2.5 2 5.18629 2 8.5C2 11.8137 4.68629 14.5 8 14.5C11.3137 14.5 14 11.8137 14 8.5C14 5.18629 11.3137 2.5 8 2.5Z"
        fill="#0094D5" />
</svg>