<svg width="16" height="21" viewBox="0 0 16 21" fill="none" xmlns="http://www.w3.org/2000/svg">
    <path
        d="M9.57943 8.64974C9.84127 8.43618 10.2273 8.45125 10.4714 8.69532C10.7154 8.93939 10.7305 9.3254 10.5169 9.58724L10.4714 9.63803L7.80469 12.3047C7.56061 12.5488 7.17461 12.5638 6.91276 12.3503L6.86198 12.3047L5.52865 10.9714L5.48307 10.9206C5.26951 10.6587 5.28457 10.2727 5.52865 10.0287C5.77272 9.78458 6.15872 9.76952 6.42057 9.98308L6.47135 10.0287L7.33333 10.8906L9.52865 8.69532L9.57943 8.64974Z"
        fill="#359000" />
    <path fill-rule="evenodd" clip-rule="evenodd"
        d="M8 3.16667C12.0501 3.16667 15.3333 6.44992 15.3333 10.5C15.3333 14.5501 12.0501 17.8333 8 17.8333C3.94991 17.8333 0.666668 14.5501 0.666668 10.5C0.666668 6.44992 3.94991 3.16667 8 3.16667ZM8 4.50001C4.68629 4.50001 2 7.1863 2 10.5C2 13.8137 4.68629 16.5 8 16.5C11.3137 16.5 14 13.8137 14 10.5C14 7.1863 11.3137 4.50001 8 4.50001Z"
        fill="#359000" />
</svg>