<svg width="16" height="21" viewBox="0 0 16 21" fill="none" xmlns="http://www.w3.org/2000/svg">
    <path
        d="M8.07486 13.1699C8.41102 13.2041 8.67317 13.4882 8.67317 13.8333C8.67317 14.1785 8.41102 14.4626 8.07486 14.4967L8.0065 14.5H7.99999C7.63181 14.5 7.33333 14.2015 7.33333 13.8333C7.33333 13.4651 7.63181 13.1667 7.99999 13.1667H8.0065L8.07486 13.1699Z"
        fill="#DF7700" />
    <path
        d="M7.99999 7.83333C8.36818 7.83333 8.66666 8.13181 8.66666 8.5V11.1667C8.66666 11.5349 8.36818 11.8333 7.99999 11.8333C7.63181 11.8333 7.33333 11.5349 7.33333 11.1667V8.5C7.33333 8.13181 7.63181 7.83334 7.99999 7.83333Z"
        fill="#DF7700" />
    <path fill-rule="evenodd" clip-rule="evenodd"
        d="M8.12564 3.82878C8.43331 3.84918 8.7332 3.94051 9.00064 4.09635C9.3054 4.27405 9.55811 4.52926 9.73242 4.83594L15.0644 14.1667L15.1263 14.2826C15.2614 14.5568 15.3319 14.8592 15.332 15.166C15.3321 15.5168 15.2403 15.8621 15.0651 16.166C14.8898 16.4699 14.637 16.7221 14.3333 16.8978C14.0297 17.0734 13.6848 17.1663 13.334 17.1667H2.66666C2.31635 17.1687 1.97131 17.0787 1.66666 16.9056C1.3602 16.7314 1.10474 16.4789 0.927078 16.1745C0.749525 15.87 0.655752 15.5237 0.654942 15.1712C0.654177 14.8195 0.746436 14.474 0.92187 14.1693L6.25455 4.83594C6.42895 4.52906 6.68198 4.27407 6.98697 4.09635C7.29254 3.91837 7.63986 3.82424 7.99348 3.82422L8.12564 3.82878ZM7.90559 5.16341C7.8187 5.17498 7.73446 5.20368 7.6582 5.24805C7.55631 5.30742 7.47155 5.39285 7.41341 5.49544L7.41275 5.4974L2.07942 14.8307L2.07747 14.8333C2.0187 14.9351 1.98802 15.0511 1.98828 15.1686C1.98861 15.2859 2.01972 15.4013 2.07877 15.5026C2.13799 15.604 2.22342 15.6887 2.32552 15.7467C2.42755 15.8046 2.54349 15.8344 2.6608 15.8333H13.3327C13.4495 15.8332 13.5649 15.8026 13.666 15.7441C13.7671 15.6856 13.8511 15.6012 13.9095 15.5C13.9679 15.3987 13.9987 15.2836 13.9987 15.1667C13.9987 15.0498 13.9679 14.9346 13.9095 14.8333L13.9082 14.8307L8.57486 5.4974L8.57356 5.49544C8.51549 5.393 8.43112 5.3074 8.32942 5.24805C8.22762 5.18873 8.1113 5.15761 7.99348 5.15755L7.90559 5.16341Z"
        fill="#DF7700" />
</svg>