<svg width="84" height="32" viewBox="0 0 84 32" fill="none" xmlns="http://www.w3.org/2000/svg">    <path fill-rule="evenodd" clip-rule="evenodd" d="M43.5146 11.1582C44.3066 11.1582 45.0026 11.3504 45.6025 11.7344C46.2024 12.1064 46.6709 12.6522 47.0068 13.3721C47.3547 14.08 47.5283 14.9319 47.5283 15.9277C47.5283 16.9117 47.3548 17.7644 47.0068 18.4844C46.6709 19.2042 46.2024 19.7557 45.6025 20.1396C45.0026 20.5116 44.3066 20.6982 43.5146 20.6982C42.8186 20.6982 42.188 20.5425 41.624 20.2305C41.2175 19.9969 40.9131 19.7087 40.7061 19.3691V24.3877H37.5029V13.8398C37.5029 13.4319 37.4908 13.0176 37.4668 12.5977C37.4428 12.1779 37.4064 11.7642 37.3584 11.3564H40.4541L40.6113 12.6416C40.8121 12.2526 41.1371 11.9256 41.5889 11.6621C42.1648 11.3262 42.8068 11.1582 43.5146 11.1582ZM42.4883 13.5342C41.9484 13.5342 41.5108 13.7264 41.1748 14.1104C40.8389 14.4823 40.6709 15.0879 40.6709 15.9277C40.6709 16.7677 40.8388 17.3797 41.1748 17.7637C41.5108 18.1356 41.9484 18.3222 42.4883 18.3223C43.0403 18.3223 43.4787 18.1357 43.8027 17.7637C44.1385 17.3797 44.3066 16.7675 44.3066 15.9277C44.3066 15.0881 44.1385 14.4823 43.8027 14.1104C43.4787 13.7264 43.0403 13.5342 42.4883 13.5342Z" fill="url(#paint0_linear_3840_6887)"/>    <path d="M13.6699 7.6123C14.5699 7.6123 15.416 7.73823 16.208 7.99023C17 8.23023 17.6484 8.56606 18.1523 8.99805L17.2158 11.4102C16.7358 11.0622 16.1957 10.7982 15.5957 10.6182C14.9958 10.4262 14.3296 10.3301 13.5977 10.3301C12.9018 10.3301 12.3736 10.4383 12.0137 10.6543C11.6659 10.8583 11.4922 11.1523 11.4922 11.5361C11.4922 11.8 11.594 12.0278 11.7979 12.2197C12.0138 12.3997 12.4039 12.5499 12.9678 12.6699L15.1279 13.1016C16.2919 13.3296 17.1623 13.7382 17.7383 14.3262C18.3261 14.9141 18.6201 15.6821 18.6201 16.6299C18.6201 17.4459 18.3915 18.1605 17.9355 18.7725C17.4916 19.3841 16.8681 19.8584 16.0645 20.1943C15.2605 20.5303 14.3117 20.6982 13.2197 20.6982C12.1998 20.6982 11.2276 20.5779 10.3037 20.3379C9.39186 20.0859 8.62392 19.75 8 19.3301L8.93555 16.7559C9.33155 17.0079 9.76442 17.2243 10.2324 17.4043C10.7003 17.5842 11.1866 17.728 11.6904 17.8359C12.2063 17.9319 12.728 17.9805 13.2559 17.9805C14.0476 17.9805 14.5935 17.8777 14.8936 17.6738C15.2056 17.4698 15.3623 17.2058 15.3623 16.8818C15.3623 16.5939 15.2596 16.3718 15.0557 16.2158C14.8516 16.048 14.4679 15.9041 13.9043 15.7842L11.708 15.334C10.544 15.094 9.67365 14.6798 9.09766 14.0918C8.52184 13.4918 8.23438 12.7118 8.23438 11.752C8.23438 10.912 8.4564 10.1862 8.90039 9.57422C9.35634 8.9503 9.99176 8.46978 10.8076 8.13379C11.6236 7.7858 12.578 7.61232 13.6699 7.6123Z" fill="url(#paint1_linear_3840_6887)"/>    <path d="M24.1836 11.3564H26.416V13.7139H24.1836V16.8281C24.1836 17.3561 24.304 17.7097 24.5439 17.8896C24.7838 18.0576 25.0714 18.1415 25.4072 18.1416C25.6112 18.1416 25.7857 18.1304 25.9297 18.1064C26.0857 18.0704 26.248 18.0219 26.416 17.9619V20.4277C26.1522 20.5357 25.8879 20.6075 25.624 20.6436C25.3721 20.6795 25.1257 20.6982 24.8857 20.6982C23.5897 20.6982 22.6112 20.3923 21.9512 19.7803C21.3032 19.1563 20.9795 18.214 20.9795 16.9541V13.7139H19.2695V11.3564H20.9795V9.19629L24.1836 8.44043V11.3564Z" fill="url(#paint2_linear_3840_6887)"/>    <path fill-rule="evenodd" clip-rule="evenodd" d="M31.8008 11.1582C32.7246 11.1582 33.4926 11.3617 34.1045 11.7695C34.7284 12.1655 35.1968 12.7179 35.5088 13.4258C35.8208 14.1218 35.9766 14.9324 35.9766 15.8564V16.54H30.2158C30.2879 17.0727 30.4734 17.4807 30.7744 17.7637C31.1703 18.1356 31.7406 18.3222 32.4844 18.3223C32.9644 18.3223 33.415 18.2682 33.835 18.1602C34.2669 18.0522 34.6746 17.8777 35.0586 17.6377L35.8867 19.7256C35.4307 20.0376 34.9027 20.2783 34.3027 20.4463C33.7028 20.6143 33.0665 20.6982 32.3945 20.6982C30.7387 20.6982 29.4484 20.2719 28.5244 19.4199C27.6126 18.568 27.1573 17.3979 27.1572 15.9102C27.1572 14.9863 27.3486 14.1642 27.7324 13.4443C28.1164 12.7243 28.6565 12.1655 29.3525 11.7695C30.0485 11.3615 30.8648 11.1582 31.8008 11.1582ZM31.8369 13.2637C31.2969 13.2637 30.8827 13.468 30.5947 13.876C30.3988 14.1571 30.2746 14.5415 30.2178 15.0283H33.3066C33.2774 14.471 33.1475 14.0505 32.917 13.7676C32.665 13.4317 32.3048 13.2637 31.8369 13.2637Z" fill="url(#paint3_linear_3840_6887)"/>    <path fill-rule="evenodd" clip-rule="evenodd" d="M55.3145 7.6123C56.6344 7.61231 57.7744 7.88191 58.7344 8.42188C59.6944 8.96186 60.4322 9.72404 60.9482 10.708C61.4762 11.68 61.7402 12.8265 61.7402 14.1465C61.7402 15.4543 61.4762 16.6001 60.9482 17.584C60.4323 18.5679 59.6943 19.3357 58.7344 19.8877C57.7744 20.4277 56.6344 20.6982 55.3145 20.6982C54.0065 20.6982 52.8721 20.4277 51.9121 19.8877C50.9643 19.3357 50.2262 18.5679 49.6982 17.584C49.1823 16.6001 48.9249 15.4542 48.9248 14.1465C48.9248 12.8265 49.1823 11.68 49.6982 10.708C50.2142 9.72407 50.9522 8.96187 51.9121 8.42188C52.8721 7.88187 54.0065 7.6123 55.3145 7.6123ZM55.3145 10.3838C54.3305 10.3838 53.5982 10.714 53.1182 11.374C52.6382 12.022 52.3984 12.9466 52.3984 14.1465C52.3985 15.334 52.6384 16.2637 53.1182 16.9355C53.5982 17.5955 54.3305 17.9258 55.3145 17.9258C56.2984 17.9258 57.0363 17.5955 57.5283 16.9355C58.0201 16.2637 58.2665 15.3341 58.2666 14.1465C58.2666 12.9585 58.0203 12.034 57.5283 11.374C57.0363 10.7141 56.2984 10.3838 55.3145 10.3838Z" fill="url(#paint4_linear_3840_6887)"/>    <path fill-rule="evenodd" clip-rule="evenodd" d="M78.998 11.1582C79.9218 11.1582 80.6898 11.3617 81.3018 11.7695C81.9257 12.1655 82.3941 12.7179 82.7061 13.4258C83.0181 14.1218 83.1738 14.9324 83.1738 15.8564V16.54H77.4131C77.4852 17.0727 77.6707 17.4807 77.9717 17.7637C78.3676 18.1356 78.9379 18.3222 79.6816 18.3223C80.1616 18.3223 80.6122 18.2682 81.0322 18.1602C81.4642 18.0522 81.8719 17.8777 82.2559 17.6377L83.084 19.7256C82.628 20.0376 82.1 20.2783 81.5 20.4463C80.9 20.6143 80.2637 20.6982 79.5918 20.6982C77.9359 20.6982 76.6456 20.2719 75.7217 19.4199C74.8099 18.568 74.3545 17.3979 74.3545 15.9102C74.3545 14.9863 74.5458 14.1642 74.9297 13.4443C75.3137 12.7243 75.8538 12.1655 76.5498 11.7695C77.2458 11.3615 78.0621 11.1582 78.998 11.1582ZM79.0342 13.2637C78.4942 13.2637 78.08 13.468 77.792 13.876C77.596 14.1571 77.4719 14.5415 77.415 15.0283H80.5039C80.4747 14.471 80.3448 14.0505 80.1143 13.7676C79.8623 13.4317 79.502 13.2637 79.0342 13.2637Z" fill="url(#paint5_linear_3840_6887)"/>    <path d="M69.6377 11.1582C70.7055 11.1583 71.5033 11.4764 72.0312 12.1123C72.5711 12.7363 72.8408 13.7141 72.8408 15.0459V20.5H69.6377V15.1904C69.6377 14.6024 69.5351 14.1938 69.3311 13.9658C69.1271 13.7259 68.8331 13.6064 68.4492 13.6064C67.9452 13.6064 67.5376 13.7744 67.2256 14.1104C66.9136 14.4344 66.7568 14.8663 66.7568 15.4062V20.5H63.5537V13.8398C63.5537 13.4319 63.5416 13.0176 63.5176 12.5977C63.4936 12.1779 63.4571 11.7642 63.4092 11.3564H66.5049L66.6533 12.6582C66.9378 12.2195 67.3078 11.8748 67.7656 11.626C68.3176 11.3141 68.9418 11.1582 69.6377 11.1582Z" fill="url(#paint6_linear_3840_6887)"/>    <path d="M5 19H0V14H5V19Z" fill="url(#paint7_linear_3840_6887)"/>    <defs>        <linearGradient id="paint0_linear_3840_6887" x1="0" y1="16" x2="83.1738" y2="16" gradientUnits="userSpaceOnUse">            <stop stop-color="#E31C79"/>            <stop offset="1" stop-color="#D6001C"/>        </linearGradient>        <linearGradient id="paint1_linear_3840_6887" x1="0" y1="16" x2="83.1738" y2="16" gradientUnits="userSpaceOnUse">            <stop stop-color="#E31C79"/>            <stop offset="1" stop-color="#D6001C"/>        </linearGradient>        <linearGradient id="paint2_linear_3840_6887" x1="0" y1="16" x2="83.1738" y2="16" gradientUnits="userSpaceOnUse">            <stop stop-color="#E31C79"/>            <stop offset="1" stop-color="#D6001C"/>        </linearGradient>        <linearGradient id="paint3_linear_3840_6887" x1="0" y1="16" x2="83.1738" y2="16" gradientUnits="userSpaceOnUse">            <stop stop-color="#E31C79"/>            <stop offset="1" stop-color="#D6001C"/>        </linearGradient>        <linearGradient id="paint4_linear_3840_6887" x1="0" y1="16" x2="83.1738" y2="16" gradientUnits="userSpaceOnUse">            <stop stop-color="#E31C79"/>            <stop offset="1" stop-color="#D6001C"/>        </linearGradient>        <linearGradient id="paint5_linear_3840_6887" x1="0" y1="16" x2="83.1738" y2="16" gradientUnits="userSpaceOnUse">            <stop stop-color="#E31C79"/>            <stop offset="1" stop-color="#D6001C"/>        </linearGradient>        <linearGradient id="paint6_linear_3840_6887" x1="0" y1="16" x2="83.1738" y2="16" gradientUnits="userSpaceOnUse">            <stop stop-color="#E31C79"/>            <stop offset="1" stop-color="#D6001C"/>        </linearGradient>        <linearGradient id="paint7_linear_3840_6887" x1="0" y1="16" x2="83.1738" y2="16" gradientUnits="userSpaceOnUse">            <stop stop-color="#E31C79"/>            <stop offset="1" stop-color="#D6001C"/>        </linearGradient>    </defs></svg>